<mxfile host="app.diagrams.net" modified="2023-07-10T02:09:32.565Z" agent="Mozilla/5.0 (Windows NT 10.0; Win64; x64) AppleWebKit/537.36 (KHTML, like Gecko) Chrome/114.0.0.0 Safari/537.36" version="21.6.1" etag="2LY8RpHoRCYJZwHsX-mE" type="github">
  <diagram name="페이지-1" id="qreG6mvnX1ZqonRglmv9">
    <mxGraphModel>
      <root>
        <mxCell id="0" />
        <mxCell id="1" parent="0" />
      </root>
    </mxGraphModel>
  </diagram>
</mxfile>
